<?xml version="1.0" encoding="utf-8"?>
<!-- Generator: Adobe Illustrator 16.0.0, SVG Export Plug-In . SVG Version: 6.00 Build 0)  -->
<!DOCTYPE svg PUBLIC "-//W3C//DTD SVG 1.1//EN" "http://www.w3.org/Graphics/SVG/1.1/DTD/svg11.dtd">
<svg version="1.1" xmlns="http://www.w3.org/2000/svg" xmlns:xlink="http://www.w3.org/1999/xlink" x="0px" y="0px" width="128px"
	 height="48px" viewBox="0 0 128 48" enable-background="new 0 0 128 48" xml:space="preserve">
<g id="section_x5F_indicator" display="none">
	<rect display="inline" fill="#FBB040" width="32" height="48"/>
	<rect x="32" display="inline" fill="#EF4136" width="32" height="48"/>
	<rect x="96" y="0" display="inline" fill="#009444" width="32" height="48"/>
	<rect x="64" y="0" display="inline" fill="#7F3F98" width="32" height="48"/>
</g>
<g id="standard">
	<polygon fill="#F16522" points="16,40.949 0,47.056 16,0.944 32,47.056 	"/>
	<polygon opacity="0.2" fill="#231F20" points="16,0.944 16,40.949 0,47.056 	"/>
</g>
<g id="Layer_5">
	<g>
		<polygon fill="#F16522" points="112,44.01 96,47.816 112,3.971 128,47.816 		"/>
		<polygon opacity="0.2" fill="#231F20" points="112,3.971 112,44.01 96,47.816 		"/>
	</g>
</g>
<g id="invincible">
	<polygon opacity="0.5" fill="#F16522" points="48,40.949 32,47.056 48,0.944 64,47.056 	"/>
	<polygon opacity="0.2" fill="#231F20" points="48,0.944 48,40.949 32,47.056 	"/>
</g>
<g id="forward">
	<polygon fill="#F16522" points="80,40.477 65.6,46.583 80,0.472 94.4,46.583 	"/>
	<polygon opacity="0.2" fill="#231F20" points="80,0.472 80,40.477 65.6,46.583 	"/>
	<path opacity="0.7" fill="#FFFFFF" d="M82.002,44.192c0,1.842-2.002,3.335-2.002,3.335s-2.002-1.493-2.002-3.335
		s0.16-3.335,2.002-3.335S82.002,42.351,82.002,44.192z"/>
	<path opacity="0.5" fill="#FFFFFF" d="M81.478,43.317c0,1.359-1.477,2.46-1.477,2.46s-1.478-1.101-1.478-2.46
		c0-1.358,0.119-2.46,1.478-2.46S81.478,41.959,81.478,43.317z"/>
</g>
</svg>
