<?xml version="1.0" encoding="utf-8"?>
<!-- Generator: Adobe Illustrator 15.0.0, SVG Export Plug-In . SVG Version: 6.00 Build 0)  -->
<!DOCTYPE svg PUBLIC "-//W3C//DTD SVG 1.1//EN" "http://www.w3.org/Graphics/SVG/1.1/DTD/svg11.dtd">
<svg version="1.1" xmlns="http://www.w3.org/2000/svg" xmlns:xlink="http://www.w3.org/1999/xlink" x="0px" y="0px" width="32px"
	 height="48px" viewBox="0 0 32 48" enable-background="new 0 0 32 48" xml:space="preserve">
<g id="Layer_1">
	<polygon fill="#F26522" points="16,40.005 0,46.111 16,0 32,46.111 	"/>
	<polygon opacity="0.2" points="16,0 16,40.005 0,46.111 	"/>
</g>
<g id="Layer_3" display="none">
	<polygon display="inline" fill="#F26522" points="16,40.005 1.6,46.111 16,0 30.4,46.111 	"/>
	<polygon display="inline" opacity="0.2" points="16,0 16,40.005 1.6,46.111 	"/>
</g>
<g id="Layer_2" display="none">
	<g display="inline">
		<path fill="#F26522" d="M16,41.294c-6.401,1.84-9.601,2.684-16,5.014C5.332,31.649,10.664,16.994,16,2.338
			c5.334,14.656,10.664,29.313,16,43.969C25.602,43.978,22.399,43.134,16,41.294z"/>
		<path opacity="0.2" d="M16,2.338C16,15.323,16,28.308,16,41.294c-6.401,1.84-9.601,2.684-16,5.014
			C5.332,31.649,10.664,16.994,16,2.338z"/>
	</g>
</g>
</svg>
